<svg xmlns="http://www.w3.org/2000/svg" viewBox="0 0 64 64">
  <rect width="64" height="64" fill="#0f1420"/>
  <g transform="translate(32 32) scale(0.68) translate(-32.5 -32.25)">
  <g fill="#5b8cff">
    <rect x="10" y="10" width="17" height="17" rx="3.5"/>
    <rect x="37" y="10" width="17" height="17" rx="3.5"/>
    <rect x="10" y="37" width="17" height="17" rx="3.5"/>
    <path d="M45.5 36 L56 45 V52 a2.5 2.5 0 0 1 -2.5 2.5 H37.5 A2.5 2.5 0 0 1 35 52 V45 Z"/>
  </g>
  <g fill="#0f1420">
    <rect x="15" y="15" width="7" height="7" rx="1.4"/>
    <rect x="42" y="15" width="7" height="7" rx="1.4"/>
    <rect x="15" y="42" width="7" height="7" rx="1.4"/>
    <rect x="43" y="47" width="5" height="7.5" rx="1"/>
  </g>
  </g>
</svg>
